RobotoSerifTextWide-Super 06h.ufo
<glyph name="one" format="2">
  <advance width="664"/>
  <unicode hex="0031"/>
  <outline>
    <contour>
      <point x="510" y="120" type="curve" smooth="yes"/>
      <point x="510" y="609" type="line"/>
      <point x="270" y="609" type="line"/>
      <point x="229" y="560"/>
      <point x="179" y="533"/>
      <point x="48" y="532" type="curve"/>
      <point x="48" y="405" type="line"/>
      <point x="154" y="404"/>
      <point x="215" y="433"/>
      <point x="250" y="521" type="curve"/>
      <point x="237" y="533"/>
      <point x="244" y="522"/>
      <point x="229" y="514" type="curve"/>
      <point x="229" y="120" type="line" smooth="yes"/>
      <point x="229" y="83.0"/>
      <point x="172.3046875" y="76"/>
      <point x="106" y="76" type="curve" smooth="yes"/>
      <point x="71" y="76" type="line"/>
      <point x="71" y="0" type="line"/>
      <point x="652" y="0" type="line"/>
      <point x="652" y="76" type="line"/>
      <point x="633" y="76" type="line" smooth="yes"/>
      <point x="560.9296875" y="76"/>
      <point x="510" y="83.0"/>
    </contour>
  </outline>
</glyph>
<glyph name="two" format="2">
  <advance width="664"/>
  <unicode hex="0032"/>
  <outline>
    <contour>
      <point x="384" y="145" type="line" smooth="yes"/>
      <point x="475" y="145"/>
      <point x="506" y="149"/>
      <point x="514" y="185" type="curve" smooth="yes"/>
      <point x="523" y="235" type="line"/>
      <point x="632" y="235" type="line"/>
      <point x="632" y="0" type="line"/>
      <point x="23" y="0" type="line"/>
      <point x="23" y="158" type="line"/>
      <point x="210" y="247"/>
      <point x="345" y="302"/>
      <point x="345" y="439" type="curve" smooth="yes"/>
      <point x="345" y="500"/>
      <point x="325" y="529"/>
      <point x="278" y="529" type="curve" smooth="yes"/>
      <point x="238" y="529.0"/>
      <point x="210" y="511"/>
      <point x="193" y="487" type="curve"/>
      <point x="188" y="495"/>
      <point x="187" y="541"/>
      <point x="233" y="544" type="curve"/>
      <point x="233" y="413" type="line"/>
      <point x="28" y="413" type="line"/>
      <point x="28" y="548" type="line"/>
      <point x="84" y="585"/>
      <point x="185.0" y="618.0"/>
      <point x="317" y="618" type="curve" smooth="yes"/>
      <point x="515" y="618"/>
      <point x="616" y="550"/>
      <point x="616" y="439" type="curve" smooth="yes"/>
      <point x="616" y="279"/>
      <point x="352" y="189"/>
      <point x="142" y="122" type="curve"/>
      <point x="119" y="118"/>
      <point x="126" y="139"/>
      <point x="127" y="145" type="curve"/>
    </contour>
  </outline>
</glyph>
<glyph name="three" format="2">
  <advance width="664"/>
  <unicode hex="0033"/>
  <outline>
    <contour>
      <point x="277" y="3" type="curve" smooth="yes"/>
      <point x="347" y="3"/>
      <point x="384" y="44"/>
      <point x="384" y="121" type="curve" smooth="yes"/>
      <point x="384" y="190"/>
      <point x="356.0" y="241.0"/>
      <point x="258" y="241" type="curve" smooth="yes"/>
      <point x="197" y="241" type="line"/>
      <point x="197" y="326" type="line"/>
      <point x="243" y="326" type="line" smooth="yes"/>
      <point x="335" y="326"/>
      <point x="372" y="363"/>
      <point x="372" y="448" type="curve" smooth="yes"/>
      <point x="372" y="506"/>
      <point x="349" y="529"/>
      <point x="310" y="529" type="curve" smooth="yes"/>
      <point x="272.0" y="529.0"/>
      <point x="244" y="512"/>
      <point x="228" y="488" type="curve"/>
      <point x="223.0" y="496.0"/>
      <point x="223.0" y="542.0"/>
      <point x="261" y="545" type="curve"/>
      <point x="261" y="424" type="line"/>
      <point x="57" y="424" type="line"/>
      <point x="57" y="548" type="line"/>
      <point x="111" y="586"/>
      <point x="206.0" y="618.0"/>
      <point x="339" y="618" type="curve" smooth="yes"/>
      <point x="496" y="618"/>
      <point x="630" y="566"/>
      <point x="630" y="451" type="curve" smooth="yes"/>
      <point x="630" y="330"/>
      <point x="461" y="277"/>
      <point x="250" y="277" type="curve"/>
      <point x="271" y="295" type="line"/>
      <point x="542" y="295"/>
      <point x="650" y="226"/>
      <point x="650" y="114" type="curve" smooth="yes"/>
      <point x="650" y="-19"/>
      <point x="505" y="-90"/>
      <point x="325" y="-90" type="curve" smooth="yes"/>
      <point x="136" y="-90"/>
      <point x="53" y="-14"/>
      <point x="10" y="74" type="curve"/>
      <point x="101" y="130" type="line"/>
      <point x="136" y="56"/>
      <point x="189" y="3.0"/>
    </contour>
  </outline>
</glyph>
<glyph name="eight" format="2">
  <advance width="664"/>
  <unicode hex="0038"/>
  <outline>
    <contour>
      <point x="332" y="83" type="curve" smooth="yes"/>
      <point x="298" y="83"/>
      <point x="281" y="119"/>
      <point x="281" y="207" type="curve" smooth="yes"/>
      <point x="281" y="300"/>
      <point x="297" y="332"/>
      <point x="332" y="332" type="curve" smooth="yes"/>
      <point x="367" y="332"/>
      <point x="383" y="300"/>
      <point x="383" y="207" type="curve" smooth="yes"/>
      <point x="383" y="119"/>
      <point x="366" y="83"/>
    </contour>
    <contour>
      <point x="332" y="-10" type="curve" smooth="yes"/>
      <point x="536" y="-10"/>
      <point x="655" y="76"/>
      <point x="655" y="201" type="curve" smooth="yes"/>
      <point x="655" y="325"/>
      <point x="530" y="396"/>
      <point x="332" y="396" type="curve" smooth="yes"/>
      <point x="134" y="396"/>
      <point x="9" y="325"/>
      <point x="9" y="201" type="curve" smooth="yes"/>
      <point x="9" y="76"/>
      <point x="128" y="-10"/>
    </contour>
    <contour>
      <point x="332" y="420" type="curve" smooth="yes"/>
      <point x="301" y="420"/>
      <point x="287" y="446"/>
      <point x="287" y="525" type="curve" smooth="yes"/>
      <point x="287" y="600"/>
      <point x="301" y="627"/>
      <point x="332" y="627" type="curve" smooth="yes"/>
      <point x="363" y="627"/>
      <point x="377" y="600"/>
      <point x="377" y="525" type="curve" smooth="yes"/>
      <point x="377" y="446"/>
      <point x="363" y="420"/>
    </contour>
    <contour>
      <point x="332" y="361" type="curve" smooth="yes"/>
      <point x="516" y="361"/>
      <point x="625" y="427"/>
      <point x="625" y="539" type="curve" smooth="yes"/>
      <point x="625" y="645"/>
      <point x="515" y="720"/>
      <point x="332" y="720" type="curve" smooth="yes"/>
      <point x="149" y="720"/>
      <point x="38" y="645"/>
      <point x="38" y="539" type="curve" smooth="yes"/>
      <point x="38" y="427"/>
      <point x="148" y="361"/>
    </contour>
  </outline>
</glyph>
<glyph name="less" format="2">
  <advance width="664"/>
  <unicode hex="003C"/>
  <outline>
    <contour>
      <point x="563" y="585" type="line"/>
      <point x="101" y="409" type="line"/>
      <point x="101" y="337" type="line"/>
      <point x="126" y="288" type="line"/>
      <point x="563" y="448" type="line"/>
    </contour>
    <contour>
      <point x="563" y="248" type="line"/>
      <point x="128" y="406" type="line"/>
      <point x="101" y="355" type="line"/>
      <point x="101" y="281" type="line"/>
      <point x="563" y="105" type="line"/>
    </contour>
  </outline>
</glyph>
<glyph name="cent" format="2">
  <advance width="664"/>
  <unicode hex="00A2"/>
  <outline>
    <contour>
      <point x="316" y="623" type="line"/>
      <point x="316" y="471" type="line"/>
      <point x="343" y="456" type="line"/>
      <point x="343" y="54" type="line"/>
      <point x="316" y="37" type="line"/>
      <point x="316" y="-126" type="line"/>
      <point x="447" y="-126" type="line"/>
      <point x="447" y="28" type="line"/>
      <point x="421" y="43" type="line"/>
      <point x="421" y="463" type="line"/>
      <point x="447" y="479" type="line"/>
      <point x="447" y="623" type="line"/>
    </contour>
    <contour>
      <point x="417" y="74" type="curve" smooth="yes"/>
      <point x="316" y="74"/>
      <point x="280" y="120"/>
      <point x="280" y="254" type="curve" smooth="yes"/>
      <point x="280" y="382"/>
      <point x="300.07894736842104" y="438.0"/>
      <point x="389" y="438" type="curve" smooth="yes"/>
      <point x="455.38709677419354" y="438.0"/>
      <point x="474.7816615523539" y="420.30931280083195"/>
      <point x="487" y="403" type="curve"/>
      <point x="540" y="391"/>
      <point x="567" y="434"/>
      <point x="460" y="458" type="curve"/>
      <point x="460" y="326" type="line"/>
      <point x="631" y="326" type="line"/>
      <point x="631" y="464" type="line"/>
      <point x="602" y="484"/>
      <point x="525" y="523"/>
      <point x="377" y="523" type="curve" smooth="yes"/>
      <point x="166.0" y="523.0"/>
      <point x="23.0" y="422.75092936802974"/>
      <point x="23" y="256" type="curve" smooth="yes"/>
      <point x="23.0" y="85.73408239700376"/>
      <point x="173.13714285714283" y="-13.0"/>
      <point x="371" y="-13" type="curve" smooth="yes"/>
      <point x="517.1901140684411" y="-13.0"/>
      <point x="589" y="47"/>
      <point x="638" y="131" type="curve"/>
      <point x="561" y="183" type="line"/>
      <point x="529" y="125"/>
      <point x="484" y="74"/>
    </contour>
  </outline>
</glyph>
<glyph name="Delta" format="2">
  <advance width="903"/>
  <unicode hex="0394"/>
  <outline>
    <contour>
      <point x="30" y="0" type="line"/>
      <point x="873" y="0" type="line"/>
      <point x="873" y="127" type="line"/>
      <point x="563" y="710" type="line"/>
      <point x="340" y="710" type="line"/>
      <point x="30" y="127" type="line"/>
    </contour>
    <contour>
      <point x="609" y="65" type="line"/>
      <point x="753" y="147" type="line"/>
      <point x="91" y="147" type="line"/>
      <point x="122" y="96" type="line"/>
      <point x="434" y="691" type="line"/>
      <point x="318" y="617" type="line"/>
    </contour>
  </outline>
</glyph>
<glyph name="peso" format="2">
  <advance width="664"/>
  <unicode hex="20B1"/>
  <outline>
    <contour>
      <point x="13" y="0" type="line"/>
      <point x="333" y="0" type="line"/>
      <point x="333" y="76" type="line"/>
      <point x="326" y="76" type="line" smooth="yes"/>
      <point x="300.9756097560976" y="76"/>
      <point x="288" y="78.0"/>
      <point x="288" y="85" type="curve" smooth="yes"/>
      <point x="288" y="207" type="line"/>
      <point x="309" y="207" type="line" smooth="yes"/>
      <point x="516.0" y="207.0"/>
      <point x="617.0" y="299.0"/>
      <point x="617" y="466" type="curve" smooth="yes"/>
      <point x="617.0" y="627.0"/>
      <point x="527.0" y="710.0"/>
      <point x="330" y="710" type="curve" smooth="yes"/>
      <point x="13" y="710" type="line"/>
      <point x="13" y="634" type="line"/>
      <point x="25" y="634" type="line" smooth="yes"/>
      <point x="43" y="634"/>
      <point x="56" y="627"/>
      <point x="56" y="598" type="curve" smooth="yes"/>
      <point x="56" y="112" type="line" smooth="yes"/>
      <point x="56" y="83"/>
      <point x="43" y="76"/>
      <point x="25" y="76" type="curve" smooth="yes"/>
      <point x="13" y="76" type="line"/>
    </contour>
    <contour>
      <point x="314" y="623" type="line" smooth="yes"/>
      <point x="357.94805194805195" y="623"/>
      <point x="386.0" y="596.0"/>
      <point x="386" y="461" type="curve" smooth="yes"/>
      <point x="386.0" y="327.0"/>
      <point x="358.0" y="294"/>
      <point x="316" y="294" type="curve" smooth="yes"/>
      <point x="288" y="294" type="line"/>
      <point x="288" y="623" type="line"/>
    </contour>
    <contour>
      <point x="13" y="505" type="line"/>
      <point x="13" y="425" type="line"/>
      <point x="229" y="425" type="line"/>
      <point x="249" y="433" type="line"/>
      <point x="483" y="433" type="line"/>
      <point x="525" y="425" type="line"/>
      <point x="665" y="425" type="line"/>
      <point x="665" y="505" type="line"/>
      <point x="540" y="505" type="line"/>
      <point x="501" y="497" type="line"/>
      <point x="223" y="497" type="line"/>
      <point x="214" y="505" type="line"/>
    </contour>
  </outline>
</glyph>
<glyph name="guarani" format="2">
  <advance width="664"/>
  <unicode hex="20B2"/>
  <outline>
    <contour>
      <point x="461" y="362" type="line"/>
      <point x="461" y="286" type="line"/>
      <point x="461" y="286" type="line" smooth="yes"/>
      <point x="461" y="286"/>
      <point x="461" y="279"/>
      <point x="461" y="250" type="curve"/>
      <point x="630" y="253" type="line"/>
      <point x="630" y="279"/>
      <point x="639" y="286"/>
      <point x="654" y="286" type="curve" smooth="yes"/>
      <point x="659" y="286" type="line"/>
      <point x="659" y="362" type="line"/>
    </contour>
    <contour>
      <point x="302" y="790" type="line"/>
      <point x="302" y="662" type="line"/>
      <point x="324" y="648" type="line"/>
      <point x="324" y="62" type="line"/>
      <point x="302" y="40" type="line"/>
      <point x="302" y="-120" type="line"/>
      <point x="433" y="-120" type="line"/>
      <point x="433" y="39" type="line"/>
      <point x="411" y="63" type="line"/>
      <point x="411" y="653" type="line"/>
      <point x="433" y="670" type="line"/>
      <point x="433" y="790" type="line"/>
    </contour>
    <contour>
      <point x="372" y="-7" type="curve" smooth="yes"/>
      <point x="486.0" y="-7.0"/>
      <point x="589" y="37"/>
      <point x="630" y="75" type="curve"/>
      <point x="630" y="296" type="line"/>
      <point x="461" y="325" type="line"/>
      <point x="461" y="101" type="line"/>
      <point x="442.0" y="87.0"/>
      <point x="420.0" y="78.0"/>
      <point x="378" y="78" type="curve" smooth="yes"/>
      <point x="291.0" y="78.0"/>
      <point x="255.0" y="145.0"/>
      <point x="255" y="355" type="curve" smooth="yes"/>
      <point x="255" y="532"/>
      <point x="275" y="632"/>
      <point x="396" y="632" type="curve"/>
      <point x="452.48275862068965" y="632.0"/>
      <point x="489" y="615"/>
      <point x="513" y="584" type="curve"/>
      <point x="562" y="588"/>
      <point x="579.7396582313318" y="631.134296972124"/>
      <point x="475" y="626" type="curve"/>
      <point x="475" y="515" type="line"/>
      <point x="635" y="515" type="line"/>
      <point x="635" y="661" type="line"/>
      <point x="608" y="683"/>
      <point x="524" y="717.0"/>
      <point x="382" y="717" type="curve" smooth="yes"/>
      <point x="164" y="717"/>
      <point x="11.0" y="567.0"/>
      <point x="11" y="355" type="curve" smooth="yes"/>
      <point x="11" y="137"/>
      <point x="154" y="-7"/>
    </contour>
  </outline>
</glyph>
<glyph name="estimated" format="2">
  <advance width="989"/>
  <unicode hex="212E"/>
  <outline>
    <contour>
      <point x="215" y="162" type="line"/>
      <point x="282" y="82"/>
      <point x="386" y="45"/>
      <point x="495" y="45" type="curve" smooth="yes"/>
      <point x="660" y="45"/>
      <point x="783" y="122"/>
      <point x="843" y="236" type="curve"/>
      <point x="911" y="236" type="line"/>
      <point x="851" y="98"/>
      <point x="700" y="-10"/>
      <point x="495" y="-10" type="curve" smooth="yes"/>
      <point x="249" y="-10"/>
      <point x="60" y="150"/>
      <point x="60" y="355" type="curve" smooth="yes"/>
      <point x="60" y="560"/>
      <point x="249" y="720"/>
      <point x="495" y="720" type="curve" smooth="yes"/>
      <point x="740" y="720"/>
      <point x="929" y="560"/>
      <point x="929" y="355" type="curve"/>
      <point x="165" y="355" type="line"/>
      <point x="165" y="410" type="line"/>
      <point x="774" y="410" type="line"/>
      <point x="774" y="554" type="line"/>
      <point x="706" y="629"/>
      <point x="609" y="665"/>
      <point x="495" y="665" type="curve" smooth="yes"/>
      <point x="381" y="665"/>
      <point x="283" y="629"/>
      <point x="215" y="554" type="curve"/>
    </contour>
  </outline>
</glyph>
<glyph name="uni25BF" format="2">
  <advance width="754"/>
  <unicode hex="25BF"/>
  <outline>
    <contour>
      <point x="644" y="484" type="line"/>
      <point x="377" y="49" type="line"/>
      <point x="110" y="484" type="line"/>
    </contour>
    <contour>
      <point x="555" y="424" type="line"/>
      <point x="200" y="424" type="line"/>
      <point x="208" y="454" type="line"/>
      <point x="383" y="159" type="line"/>
      <point x="371" y="159" type="line"/>
      <point x="546" y="454" type="line"/>
    </contour>
  </outline>
</glyph>
<glyph name="blackcircle" format="2">
  <advance width="656"/>
  <outline>
    <contour>
      <point x="328" y="80" type="curve" smooth="yes"/>
      <point x="464.78008298755185" y="80.0"/>
      <point x="574.0" y="177.0"/>
      <point x="574" y="304" type="curve" smooth="yes"/>
      <point x="574.0" y="431.0"/>
      <point x="464.78008298755185" y="528.0"/>
      <point x="328" y="528" type="curve" smooth="yes"/>
      <point x="191.76892430278886" y="528.0"/>
      <point x="82.0" y="431.0"/>
      <point x="82" y="304" type="curve" smooth="yes"/>
      <point x="82.0" y="177.0"/>
      <point x="191.76892430278886" y="80.0"/>
    </contour>
  </outline>
</glyph>
<glyph name="breve_hook.uc" format="2">
  <advance width="595"/>
  <anchor x="297.0" y="724.0" name="_top"/>
  <outline>
    <contour>
      <point x="141.0" y="1006.0" type="line"/>
      <point x="145.0" y="1048.0"/>
      <point x="188.0" y="1089.0"/>
      <point x="305.0" y="1089.0" type="curve" smooth="yes"/>
      <point x="408.0" y="1089.0"/>
      <point x="463.0" y="1060.0"/>
      <point x="463.0" y="1012.0" type="curve" smooth="yes"/>
      <point x="463.0" y="956.0"/>
      <point x="404.0" y="936.0"/>
      <point x="317.0" y="931.0" type="curve"/>
      <point x="351.0" y="955.0" type="line"/>
      <point x="351.0" y="908.0" type="line"/>
      <point x="239.0" y="908.0" type="line"/>
      <point x="239.0" y="966.0" type="line"/>
      <point x="300.0" y="969.0"/>
      <point x="324.0" y="982.0"/>
      <point x="324.0" y="1006.0" type="curve" smooth="yes"/>
      <point x="324.0" y="1022.0"/>
      <point x="315.0" y="1032.0"/>
      <point x="294.0" y="1032.0" type="curve" smooth="yes"/>
      <point x="275.0" y="1032.0"/>
      <point x="263.0" y="1022.0"/>
      <point x="260.0" y="1006.0" type="curve"/>
    </contour>
    <contour>
      <point x="298.0" y="758.0" type="curve" smooth="yes"/>
      <point x="186.0" y="758.0"/>
      <point x="96.0" y="801.0"/>
      <point x="91.0" y="899.0" type="curve"/>
      <point x="219.0" y="899.0" type="line"/>
      <point x="224.0" y="860.0"/>
      <point x="252.0" y="849.0"/>
      <point x="301.0" y="849.0" type="curve" smooth="yes"/>
      <point x="350.0" y="849.0"/>
      <point x="377.0" y="860.0"/>
      <point x="381.0" y="899.0" type="curve"/>
      <point x="504.0" y="899.0" type="line"/>
      <point x="498.0" y="801.0"/>
      <point x="409.0" y="758.0"/>
    </contour>
  </outline>
</glyph>
<glyph name="breve_tilde" format="2">
  <advance width="595"/>
  <anchor x="297.0" y="524.0" name="_top"/>
  <outline>
    <contour>
      <point x="373" y="764" type="curve" smooth="yes"/>
      <point x="311" y="764.0"/>
      <point x="240" y="813.0"/>
      <point x="225" y="813" type="curve" smooth="yes"/>
      <point x="202" y="813.0" name="inserted"/>
      <point x="186" y="797"/>
      <point x="178" y="762" type="curve"/>
      <point x="75" y="792" type="line"/>
      <point x="95" y="884" name="inserted"/>
      <point x="144" y="930.0"/>
      <point x="222" y="930" type="curve" smooth="yes"/>
      <point x="278" y="930.0"/>
      <point x="348" y="881.0"/>
      <point x="371" y="881" type="curve" smooth="yes"/>
      <point x="394" y="881.0" name="inserted"/>
      <point x="411" y="898"/>
      <point x="422" y="933" type="curve"/>
      <point x="524" y="901" type="line"/>
      <point x="500" y="810" name="inserted"/>
      <point x="451" y="764.0"/>
    </contour>
    <contour>
      <point x="298" y="560" type="curve" smooth="yes"/>
      <point x="168" y="560.0"/>
      <point x="85" y="622"/>
      <point x="88" y="725" type="curve"/>
      <point x="215" y="725" type="line"/>
      <point x="220" y="692" name="inserted"/>
      <point x="249" y="674.0"/>
      <point x="301" y="674" type="curve" smooth="yes"/>
      <point x="353" y="674.0" name="inserted"/>
      <point x="381" y="692"/>
      <point x="385" y="725" type="curve"/>
      <point x="506" y="725" type="line"/>
      <point x="510" y="622"/>
      <point x="425" y="560.0"/>
    </contour>
  </outline>
</glyph>
<glyph name="dollar.alt" format="2">
  <advance width="664"/>
  <outline>
    <contour>
      <point x="310" y="105" type="curve" smooth="yes"/>
      <point x="247.85714285714286" y="105.0"/>
      <point x="197.813414019224" y="128.22051070455345"/>
      <point x="165" y="167" type="curve"/>
      <point x="151" y="155"/>
      <point x="174" y="106"/>
      <point x="217" y="108" type="curve"/>
      <point x="217" y="207" type="line"/>
      <point x="17" y="207" type="line"/>
      <point x="17" y="78" type="line"/>
      <point x="59.17578473222601" y="47.594201704674276"/>
      <point x="179.0" y="12.0"/>
      <point x="320" y="12" type="curve" smooth="yes"/>
      <point x="530.0" y="12.0"/>
      <point x="647.0" y="97.0"/>
      <point x="647.0" y="244" type="curve" smooth="yes"/>
      <point x="647.0" y="365.0"/>
      <point x="552.0" y="415.0"/>
      <point x="402" y="459" type="curve" smooth="yes"/>
      <point x="307.15666945218896" y="486.9538237404075"/>
      <point x="253" y="502"/>
      <point x="253" y="553" type="curve" smooth="yes"/>
      <point x="253" y="588"/>
      <point x="279.0" y="610.0"/>
      <point x="335" y="610" type="curve" smooth="yes"/>
      <point x="383" y="610"/>
      <point x="418" y="592"/>
      <point x="453" y="554" type="curve"/>
      <point x="467" y="566"/>
      <point x="447" y="614"/>
      <point x="406" y="611" type="curve"/>
      <point x="406" y="520" type="line"/>
      <point x="600" y="520" type="line"/>
      <point x="600" y="646" type="line"/>
      <point x="562" y="669"/>
      <point x="470.0" y="698.0"/>
      <point x="340" y="698" type="curve" smooth="yes"/>
      <point x="142.99999999999997" y="698.0"/>
      <point x="17.0" y="624"/>
      <point x="17" y="488" type="curve" smooth="yes"/>
      <point x="17.0" y="363"/>
      <point x="112.05520418189049" y="310.29524869315924"/>
      <point x="225" y="275" type="curve" smooth="yes"/>
      <point x="321.03844172515437" y="244.30730212907437"/>
      <point x="406" y="233"/>
      <point x="406" y="173" type="curve" smooth="yes"/>
      <point x="406.0" y="125.0"/>
      <point x="369.2340425531915" y="105.0"/>
    </contour>
    <contour>
      <point x="394" y="663" type="line"/>
      <point x="394" y="790" type="line"/>
      <point x="275" y="790" type="line"/>
      <point x="275" y="663" type="line"/>
    </contour>
    <contour>
      <point x="275" y="64" type="line"/>
      <point x="275" y="-120" type="line"/>
      <point x="394" y="-120" type="line"/>
      <point x="394" y="64" type="line"/>
    </contour>
  </outline>
</glyph>
<glyph name="dollar.altprop" format="2">
  <advance width="730"/>
  <outline>
    <contour>
      <point x="359" y="104" type="curve" smooth="yes"/>
      <point x="258" y="104"/>
      <point x="177" y="140"/>
      <point x="138" y="176" type="curve"/>
      <point x="123" y="172"/>
      <point x="166" y="107"/>
      <point x="210" y="109" type="curve"/>
      <point x="210" y="218" type="line"/>
      <point x="30" y="218" type="line"/>
      <point x="30" y="85" type="line"/>
      <point x="82" y="50"/>
      <point x="197" y="12"/>
      <point x="364" y="12" type="curve" smooth="yes"/>
      <point x="574" y="12"/>
      <point x="700" y="94"/>
      <point x="700" y="242" type="curve" smooth="yes"/>
      <point x="700" y="371"/>
      <point x="590" y="420"/>
      <point x="413" y="461" type="curve" smooth="yes"/>
      <point x="315" y="484"/>
      <point x="248" y="494"/>
      <point x="248" y="547" type="curve" smooth="yes"/>
      <point x="248" y="587"/>
      <point x="288" y="607"/>
      <point x="368" y="607" type="curve" smooth="yes"/>
      <point x="445" y="607"/>
      <point x="506" y="591"/>
      <point x="551" y="556" type="curve"/>
      <point x="566" y="570"/>
      <point x="544" y="621"/>
      <point x="498" y="618" type="curve"/>
      <point x="498" y="518" type="line"/>
      <point x="665" y="518" type="line"/>
      <point x="665" y="637" type="line"/>
      <point x="620.7873797332744" y="665.1353038060981"/>
      <point x="502.0" y="698.0"/>
      <point x="368" y="698" type="curve" smooth="yes"/>
      <point x="175" y="698"/>
      <point x="43" y="627"/>
      <point x="43" y="494" type="curve" smooth="yes"/>
      <point x="43" y="366"/>
      <point x="151" y="319"/>
      <point x="317" y="274" type="curve" smooth="yes"/>
      <point x="433" y="243"/>
      <point x="484.0" y="225"/>
      <point x="484" y="177" type="curve" smooth="yes"/>
      <point x="484" y="127"/>
      <point x="440.0" y="104.0"/>
    </contour>
    <contour>
      <point x="431" y="653" type="line"/>
      <point x="431" y="790" type="line"/>
      <point x="300" y="790" type="line"/>
      <point x="300" y="646" type="line"/>
    </contour>
    <contour>
      <point x="300" y="56" type="line"/>
      <point x="300" y="-120" type="line"/>
      <point x="431" y="-120" type="line"/>
      <point x="431" y="55" type="line"/>
    </contour>
  </outline>
</glyph>
<glyph name="florin" format="2">
  <advance width="664"/>
  <outline>
    <contour>
      <point x="91" y="508" type="line"/>
      <point x="81" y="420" type="line"/>
      <point x="598" y="420" type="line"/>
      <point x="608" y="508" type="line"/>
    </contour>
    <contour>
      <point x="386" y="78" type="curve" smooth="yes"/>
      <point x="468" y="560" type="line" smooth="yes"/>
      <point x="479" y="626"/>
      <point x="517" y="645"/>
      <point x="568" y="645" type="curve" smooth="yes"/>
      <point x="603" y="645"/>
      <point x="625" y="636"/>
      <point x="642" y="630" type="curve"/>
      <point x="651" y="725" type="line"/>
      <point x="618" y="736"/>
      <point x="570" y="745"/>
      <point x="500" y="745" type="curve" smooth="yes"/>
      <point x="327" y="745"/>
      <point x="230" y="683"/>
      <point x="208" y="549" type="curve" smooth="yes"/>
      <point x="124" y="35" type="line" smooth="yes"/>
      <point x="99.40636908787238" y="-115.48959867659048"/>
      <point x="47" y="-137.0"/>
      <point x="-1" y="-137" type="curve" smooth="yes"/>
      <point x="-33" y="-137"/>
      <point x="-57.686996507877275" y="-124.72520139684909"/>
      <point x="-72" y="-119" type="curve"/>
      <point x="-78" y="-216" type="line"/>
      <point x="-58" y="-226"/>
      <point x="-11" y="-236"/>
      <point x="39" y="-236" type="curve" smooth="yes"/>
      <point x="214" y="-236"/>
      <point x="346" y="-157"/>
    </contour>
  </outline>
</glyph>
<glyph name="ringhalfleft" format="2">
  <advance width="595"/>
  <anchor x="297" y="566.0" name="_top"/>
  <outline>
    <contour>
      <point x="297" y="618" type="line"/>
      <point x="272" y="618"/>
      <point x="253" y="632"/>
      <point x="253" y="663" type="curve" smooth="yes"/>
      <point x="253" y="694"/>
      <point x="272" y="708"/>
      <point x="297" y="708" type="curve"/>
      <point x="297" y="773" type="line"/>
      <point x="206" y="773"/>
      <point x="136" y="737"/>
      <point x="136" y="663" type="curve" smooth="yes"/>
      <point x="136" y="589"/>
      <point x="206" y="553"/>
      <point x="297" y="553" type="curve"/>
    </contour>
  </outline>
</glyph>
<glyph name="two.oldtab" format="2">
  <advance width="664"/>
  <outline>
    <contour>
      <point x="286" y="469" type="curve" smooth="yes"/>
      <point x="248" y="469"/>
      <point x="215" y="451"/>
      <point x="199" y="427" type="curve"/>
      <point x="194" y="435"/>
      <point x="193" y="475"/>
      <point x="237" y="478" type="curve"/>
      <point x="237" y="355" type="line"/>
      <point x="33" y="355" type="line"/>
      <point x="33" y="494" type="line"/>
      <point x="103" y="533"/>
      <point x="201" y="558"/>
      <point x="321" y="558" type="curve" smooth="yes"/>
      <point x="516" y="558"/>
      <point x="619" y="499"/>
      <point x="619" y="401" type="curve" smooth="yes"/>
      <point x="619" y="258"/>
      <point x="362" y="179"/>
      <point x="144" y="128" type="curve"/>
      <point x="123" y="119"/>
      <point x="129" y="132"/>
      <point x="130" y="142" type="curve"/>
      <point x="388" y="142" type="line" smooth="yes"/>
      <point x="479" y="142"/>
      <point x="510" y="148"/>
      <point x="518" y="185" type="curve" smooth="yes"/>
      <point x="526" y="223" type="line"/>
      <point x="635" y="223" type="line"/>
      <point x="635" y="0" type="line"/>
      <point x="26" y="0" type="line"/>
      <point x="26" y="162" type="line"/>
      <point x="217" y="236"/>
      <point x="348" y="289"/>
      <point x="348" y="406" type="curve" smooth="yes"/>
      <point x="348" y="450"/>
      <point x="329" y="469"/>
    </contour>
  </outline>
</glyph>
<glyph name="whitedownpointingtriangle" format="2">
  <advance width="754"/>
  <outline>
    <contour>
      <point x="644" y="484" type="line"/>
      <point x="110" y="484" type="line"/>
      <point x="377" y="49" type="line"/>
    </contour>
    <contour>
      <point x="555" y="424" type="line"/>
      <point x="546" y="454" type="line"/>
      <point x="371" y="159" type="line"/>
      <point x="383" y="159" type="line"/>
      <point x="208" y="454" type="line"/>
      <point x="200" y="424" type="line"/>
    </contour>
  </outline>
</glyph>
<glyph name="whiterightpointingtriangle" format="2">
  <advance width="658"/>
  <outline>
    <contour>
      <point x="140" y="545" type="line"/>
      <point x="140" y="10" type="line"/>
      <point x="578" y="277" type="line"/>
    </contour>
    <contour>
      <point x="205" y="460" type="line"/>
      <point x="174" y="449" type="line"/>
      <point x="471" y="272" type="line"/>
      <point x="470" y="283" type="line"/>
      <point x="173" y="105" type="line"/>
      <point x="205" y="95" type="line"/>
    </contour>
  </outline>
</glyph>
